<svg width="194" height="45" viewBox="0 0 194 45" fill="none" xmlns="http://www.w3.org/2000/svg">
<g id="BuildMap">
<path d="M0.5 35.5436V1.92083H14.3149C16.8532 1.92083 18.9704 2.28749 20.6663 3.0208C22.3623 3.75411 23.6371 4.77198 24.4907 6.07443C25.3443 7.36593 25.7711 8.85443 25.7711 10.54C25.7711 11.8533 25.5015 13.008 24.9624 14.004C24.4233 14.9891 23.682 15.799 22.7386 16.4338C21.8063 17.0576 20.7393 17.5009 19.5375 17.7636V18.0919C20.8516 18.1467 22.0815 18.5078 23.2271 19.1755C24.384 19.8431 25.3218 20.7789 26.0406 21.9829C26.7595 23.1758 27.1189 24.5987 27.1189 26.2514C27.1189 28.0354 26.664 29.6279 25.7542 31.0288C24.8557 32.4188 23.5248 33.5188 21.7614 34.3287C19.998 35.1386 17.8247 35.5436 15.2415 35.5436H0.5ZM7.79492 29.7319H13.742C15.775 29.7319 17.2575 29.3543 18.1898 28.5991C19.122 27.8329 19.5881 26.815 19.5881 25.5454C19.5881 24.6151 19.3578 23.7942 18.8974 23.0828C18.4369 22.3714 17.7798 21.8132 16.9262 21.4082C16.0838 21.0033 15.0786 20.8008 13.9105 20.8008H7.79492V29.7319ZM7.79492 15.9905H13.2029C14.2025 15.9905 15.0898 15.8209 15.8648 15.4816C16.651 15.1313 17.2688 14.6388 17.718 14.004C18.1785 13.3692 18.4088 12.6085 18.4088 11.722C18.4088 10.5071 17.9651 9.52755 17.0778 8.78329C16.2018 8.03904 14.9551 7.66691 13.3377 7.66691H7.79492V15.9905Z" fill="black"/>
<path d="M45.479 24.8066V10.3265H52.656V35.5436H45.7654V30.9632H45.4958C44.9118 32.4407 43.9403 33.6282 42.5812 34.5257C41.2334 35.4232 39.588 35.8719 37.645 35.8719C35.9153 35.8719 34.3934 35.4889 33.0793 34.7227C31.7652 33.9566 30.7375 32.8676 29.9962 31.4557C29.2662 30.0438 28.8955 28.3528 28.8843 26.3827V10.3265H36.0613V25.135C36.0725 26.6235 36.4825 27.8001 37.2912 28.6647C38.0998 29.5294 39.1837 29.9617 40.5427 29.9617C41.4075 29.9617 42.2162 29.7702 42.9687 29.3871C43.7212 28.9931 44.3278 28.413 44.7882 27.6468C45.26 26.8807 45.4902 25.934 45.479 24.8066Z" fill="black"/>
<path d="M55.5502 35.5436V10.3265H62.7272V35.5436H55.5502ZM59.1555 7.07589C58.0885 7.07589 57.1732 6.73112 56.4094 6.04159C55.6569 5.34112 55.2806 4.50383 55.2806 3.52973C55.2806 2.56658 55.6569 1.74024 56.4094 1.05071C57.1732 0.350238 58.0885 0 59.1555 0C60.2225 0 61.1323 0.350238 61.8848 1.05071C62.6486 1.74024 63.0304 2.56658 63.0304 3.52973C63.0304 4.50383 62.6486 5.34112 61.8848 6.04159C61.1323 6.73112 60.2225 7.07589 59.1555 7.07589Z" fill="black"/>
<path d="M72.8068 1.92083V35.5436H65.6298V1.92083H72.8068Z" fill="black"/>
<path d="M85.2451 35.954C83.2795 35.954 81.4993 35.4615 79.9044 34.4765C78.3208 33.4805 77.0628 32.0193 76.1306 30.093C75.2096 28.1558 74.7491 25.7807 74.7491 22.9679C74.7491 20.0784 75.2265 17.676 76.1812 15.7607C77.1359 13.8344 78.405 12.3951 79.9887 11.4429C81.5836 10.4798 83.3301 9.99818 85.2282 9.99818C86.6771 9.99818 87.8845 10.239 88.8504 10.7205C89.8275 11.1912 90.6138 11.7822 91.209 12.4936C91.8155 13.1941 92.276 13.8836 92.5905 14.5622H92.8095V1.92083H99.9697V35.5436H92.8938V31.5049H92.5905C92.2536 32.2054 91.7762 32.9004 91.1585 33.5899C90.552 34.2685 89.7602 34.8322 88.783 35.2809C87.8171 35.7297 86.6378 35.954 85.2451 35.954ZM87.5195 30.3885C88.6763 30.3885 89.6535 30.0821 90.4509 29.4692C91.2596 28.8453 91.8773 27.9752 92.3041 26.8588C92.7421 25.7424 92.9612 24.4345 92.9612 22.9351C92.9612 21.4356 92.7478 20.1332 92.321 19.0277C91.8942 17.9223 91.2764 17.0686 90.4678 16.4666C89.6591 15.8646 88.6763 15.5637 87.5195 15.5637C86.3401 15.5637 85.3461 15.8756 84.5375 16.4995C83.7288 17.1233 83.1167 17.988 82.7011 19.0934C82.2855 20.1988 82.0778 21.4794 82.0778 22.9351C82.0778 24.4017 82.2855 25.6987 82.7011 26.826C83.1279 27.9424 83.74 28.818 84.5375 29.4528C85.3461 30.0766 86.3401 30.3885 87.5195 30.3885Z" fill="black"/>
<path d="M103.159 1.92083H112.155L121.657 24.5111H122.061L131.563 1.92083H140.56V35.5436H133.484V13.6592H133.198L124.269 35.3794H119.45L110.521 13.5772H110.235V35.5436H103.159V1.92083Z" fill="black"/>
<path d="M150.968 36.0197C149.317 36.0197 147.846 35.7406 146.554 35.1824C145.262 34.6133 144.24 33.776 143.488 32.6706C142.747 31.5542 142.376 30.1642 142.376 28.5005C142.376 27.0996 142.64 25.923 143.168 24.9708C143.696 24.0186 144.414 23.2525 145.324 22.6724C146.234 22.0923 147.267 21.6545 148.424 21.359C149.592 21.0635 150.816 20.8555 152.097 20.7351C153.602 20.5819 154.815 20.4396 155.736 20.3083C156.657 20.166 157.325 19.958 157.741 19.6844C158.156 19.4108 158.364 19.0058 158.364 18.4695V18.371C158.364 17.3313 158.027 16.5268 157.353 15.9577C156.691 15.3885 155.747 15.104 154.523 15.104C153.231 15.104 152.204 15.3831 151.44 15.9413C150.676 16.4885 150.171 17.178 149.924 18.0098L143.286 17.4845C143.623 15.9522 144.285 14.6279 145.274 13.5115C146.262 12.3842 147.537 11.5195 149.098 10.9175C150.67 10.3046 152.49 9.99818 154.557 9.99818C155.994 9.99818 157.37 10.1624 158.684 10.4907C160.01 10.819 161.183 11.328 162.205 12.0175C163.239 12.707 164.053 13.5936 164.648 14.6771C165.243 15.7497 165.541 17.0358 165.541 18.5352V35.5436H158.735V32.0467H158.533C158.117 32.8347 157.561 33.5297 156.865 34.1317C156.168 34.7227 155.332 35.1879 154.354 35.5272C153.377 35.8555 152.248 36.0197 150.968 36.0197ZM153.023 31.193C154.079 31.193 155.011 30.9905 155.82 30.5856C156.629 30.1696 157.263 29.6115 157.724 28.911C158.184 28.2105 158.415 27.417 158.415 26.5305V23.8544C158.19 23.9967 157.881 24.1281 157.488 24.2485C157.106 24.3579 156.674 24.4619 156.191 24.5604C155.708 24.6479 155.225 24.73 154.742 24.8066C154.259 24.8723 153.821 24.9325 153.428 24.9872C152.585 25.1076 151.85 25.2992 151.221 25.5618C150.592 25.8245 150.103 26.1802 149.755 26.629C149.407 27.0668 149.233 27.614 149.233 28.2707C149.233 29.2229 149.587 29.9507 150.294 30.4542C151.013 30.9467 151.923 31.193 153.023 31.193Z" fill="black"/>
<path d="M168.263 45V10.3265H175.338V14.5622H175.659C175.973 13.8836 176.428 13.1941 177.023 12.4936C177.63 11.7822 178.416 11.1912 179.382 10.7205C180.359 10.239 181.572 9.99818 183.021 9.99818C184.908 9.99818 186.649 10.4798 188.244 11.4429C189.838 12.3951 191.113 13.8344 192.068 15.7607C193.023 17.676 193.5 20.0784 193.5 22.9679C193.5 25.7807 193.034 28.1558 192.102 30.093C191.181 32.0193 189.923 33.4805 188.328 34.4765C186.744 35.4615 184.97 35.954 183.004 35.954C181.611 35.954 180.426 35.7297 179.449 35.2809C178.483 34.8322 177.692 34.2685 177.074 33.5899C176.456 32.9004 175.984 32.2054 175.659 31.5049H175.44V45H168.263ZM175.288 22.9351C175.288 24.4345 175.501 25.7424 175.928 26.8588C176.355 27.9752 176.973 28.8453 177.781 29.4692C178.59 30.0821 179.573 30.3885 180.73 30.3885C181.898 30.3885 182.886 30.0766 183.695 29.4528C184.503 28.818 185.116 27.9424 185.531 26.826C185.958 25.6987 186.171 24.4017 186.171 22.9351C186.171 21.4794 185.964 20.1988 185.548 19.0934C185.132 17.988 184.52 17.1233 183.712 16.4995C182.903 15.8756 181.909 15.5637 180.73 15.5637C179.562 15.5637 178.573 15.8646 177.765 16.4666C176.967 17.0686 176.355 17.9223 175.928 19.0277C175.501 20.1332 175.288 21.4356 175.288 22.9351Z" fill="black"/>
</g>
</svg>
