<svg width="31" height="30" viewBox="0 0 31 30" fill="none" xmlns="http://www.w3.org/2000/svg">
<path d="M26.7797 0C27.6675 0 28.5189 0.347079 29.1467 0.964884C29.7744 1.58269 30.1271 2.42061 30.1271 3.29432V26.3546C30.1271 27.2283 29.7744 28.0662 29.1467 28.684C28.5189 29.3018 27.6675 29.6489 26.7797 29.6489H3.34746C2.45966 29.6489 1.60822 29.3018 0.980447 28.684C0.352677 28.0662 0 27.2283 0 26.3546V3.29432C0 2.42061 0.352677 1.58269 0.980447 0.964884C1.60822 0.347079 2.45966 0 3.34746 0H26.7797ZM25.9428 25.531V16.801C25.9428 15.3769 25.3679 14.0111 24.3447 13.0041C23.3214 11.997 21.9335 11.4313 20.4864 11.4313C19.0638 11.4313 17.4068 12.2878 16.6034 13.5726V11.7443H11.9337V25.531H16.6034V17.4105C16.6034 16.1422 17.6411 15.1045 18.9299 15.1045C19.5513 15.1045 20.1473 15.3474 20.5868 15.7799C21.0262 16.2123 21.2731 16.7989 21.2731 17.4105V25.531H25.9428ZM6.49407 9.15822C7.23982 9.15822 7.95503 8.86667 8.48235 8.34771C9.00968 7.82876 9.30593 7.1249 9.30593 6.39099C9.30593 4.85913 8.05063 3.60728 6.49407 3.60728C5.74387 3.60728 5.02441 3.90056 4.49394 4.42261C3.96348 4.94466 3.66546 5.6527 3.66546 6.39099C3.66546 7.92284 4.9375 9.15822 6.49407 9.15822ZM8.82055 25.531V11.7443H4.18432V25.531H8.82055Z" fill="black"/>
</svg>
