<svg width="31" height="30" viewBox="0 0 31 30" fill="none" xmlns="http://www.w3.org/2000/svg">
<path d="M4.43101 0C2.05715 0 0.127136 1.89938 0.127136 4.23556V25.4133C0.127136 27.7495 2.05715 29.6489 4.43101 29.6489H25.9504C28.3242 29.6489 30.2542 27.7495 30.2542 25.4133V4.23556C30.2542 1.89938 28.3242 0 25.9504 0H4.43101ZM24.4104 5.55917L17.43 13.4082L25.641 24.0897H19.2121L14.182 17.6107L8.41882 24.0897H5.22454L12.6891 15.6914L4.81432 5.55917H11.4046L15.9573 11.4823L21.2161 5.55917H24.4104ZM21.8684 22.2102L10.443 7.33943H8.53986L20.0931 22.2102H21.8617H21.8684Z" fill="black"/>
</svg>
